<svg xmlns="http://www.w3.org/2000/svg" version="1.1" xmlns:xlink="http://www.w3.org/1999/xlink" width="512" height="512" x="0" y="0" viewBox="0 0 470 470" style="enable-background:new 0 0 512 512" xml:space="preserve" class=""><g><path d="M401.17 68.83C356.784 24.444 297.771 0 235 0S113.216 24.444 68.83 68.83C24.444 113.215 0 172.229 0 235s24.444 121.785 68.83 166.17C113.216 445.556 172.229 470 235 470s121.784-24.444 166.17-68.83C445.556 356.785 470 297.771 470 235s-24.444-121.785-68.83-166.17zM235 455c-121.309 0-220-98.691-220-220S113.691 15 235 15s220 98.691 220 220-98.691 220-220 220z" fill="#196bde" opacity="1" data-original="#000000" class=""></path><path d="M298.457 400.217a7.505 7.505 0 0 0 8.508-3.534l16.548-29.187 33.286-4.192a7.502 7.502 0 0 0 6.504-6.504l4.192-33.286 29.188-16.548a7.501 7.501 0 0 0-7.399-13.049l-32.46 18.403a7.5 7.5 0 0 0-3.742 5.587l-3.936 31.242-31.241 3.935a7.5 7.5 0 0 0-5.587 3.742l-15.524 27.381-30.351-8.324a7.497 7.497 0 0 0-6.584 1.31L235 396.503l-24.86-19.311a7.505 7.505 0 0 0-6.584-1.31l-30.352 8.324-15.524-27.382a7.5 7.5 0 0 0-5.587-3.742l-31.241-3.935-3.936-31.242a7.505 7.505 0 0 0-3.742-5.587l-32.459-18.403a7.5 7.5 0 0 0-7.399 13.049l29.188 16.548 4.192 33.286a7.5 7.5 0 0 0 6.504 6.504l33.286 4.192 16.548 29.188a7.502 7.502 0 0 0 8.508 3.534l32.36-8.875 26.497 20.582c1.354 1.051 2.977 1.577 4.601 1.577s3.247-.525 4.601-1.577l26.497-20.582 32.359 8.876zM353.084 152.094a7.505 7.505 0 0 0 3.742 5.587l32.459 18.403a7.498 7.498 0 0 0 10.223-2.825 7.5 7.5 0 0 0-2.825-10.224l-29.188-16.548-4.192-33.286a7.5 7.5 0 0 0-6.504-6.504l-33.286-4.192-16.548-29.188a7.502 7.502 0 0 0-8.508-3.534l-32.36 8.875L239.6 58.076a7.498 7.498 0 0 0-9.201 0l-26.497 20.582-32.359-8.875a7.5 7.5 0 0 0-8.508 3.534l-16.548 29.187-33.286 4.192a7.502 7.502 0 0 0-6.504 6.504l-4.192 33.286-29.188 16.548a7.5 7.5 0 0 0 7.399 13.049l32.46-18.403a7.5 7.5 0 0 0 3.742-5.587l3.936-31.242 31.241-3.935a7.5 7.5 0 0 0 5.587-3.742l15.524-27.381 30.351 8.324a7.508 7.508 0 0 0 6.584-1.31L235 73.497l24.86 19.311a7.509 7.509 0 0 0 6.584 1.31l30.352-8.324 15.524 27.382a7.5 7.5 0 0 0 5.587 3.742l31.241 3.935 3.936 31.241z" fill="#196bde" opacity="1" data-original="#000000" class=""></path><path d="M222.626 298.531a7.5 7.5 0 0 0-10.607 0l-14.376 14.376-8.733-8.733a7.5 7.5 0 0 0-10.607 10.606l7.888 7.888a23.887 23.887 0 0 1-10.82 2.572c-5.424 0-10.572-1.786-14.774-5.082v-.389c0-4.142-3.357-7.5-7.5-7.5s-7.5 3.358-7.5 7.5v3.744a7.5 7.5 0 0 0 2.196 5.303c7.366 7.366 17.16 11.423 27.578 11.423 7.87 0 15.383-2.319 21.764-6.628l9.243 9.243a7.476 7.476 0 0 0 5.304 2.197 7.5 7.5 0 0 0 5.304-12.803l-8.734-8.734 14.377-14.377a7.502 7.502 0 0 0-.003-10.606z" fill="#196bde" opacity="1" data-original="#000000" class=""></path><path d="M253.017 342.855c1.465 1.464 3.385 2.197 5.304 2.197s3.839-.732 5.304-2.197l9.243-9.243c6.381 4.309 13.894 6.628 21.764 6.628 10.418 0 20.212-4.057 27.578-11.423a7.5 7.5 0 0 0 2.196-5.303v-3.744c0-4.142-3.357-7.5-7.5-7.5s-7.5 3.358-7.5 7.5v.389c-4.202 3.295-9.351 5.082-14.774 5.082-3.823 0-7.506-.894-10.82-2.572l7.888-7.888a7.5 7.5 0 0 0-10.607-10.606l-8.733 8.733-26.75-26.75 4.335-4.335c18.511-18.511 41.989-30.014 67.897-33.266a7.5 7.5 0 0 0 6.507-8.375c-.516-4.11-4.267-7.03-8.376-6.507-29.245 3.671-55.745 16.653-76.636 37.542L235 275.55l-4.335-4.335c-20.891-20.89-47.391-33.872-76.637-37.542-4.093-.52-7.859 2.396-8.375 6.507a7.498 7.498 0 0 0 6.507 8.375c25.908 3.252 49.387 14.755 67.897 33.266l41.693 41.693-8.734 8.734a7.501 7.501 0 0 0 .001 10.607z" fill="#196bde" opacity="1" data-original="#000000" class=""></path><path d="M235 112.948a7.5 7.5 0 0 0-7.5 7.5v4.124a37.508 37.508 0 0 0-11.665-1.884c-4.538 0-9.006.82-13.281 2.438-19.375 7.332-29.174 29.059-21.843 48.435a7.501 7.501 0 0 0 10.503 3.984l20.009-10.516-5.053 7.241a7.5 7.5 0 0 0 12.3 8.583l9.028-12.939v45.584a37.693 37.693 0 0 0-12.452 4.923 7.5 7.5 0 0 0 3.964 13.872 7.463 7.463 0 0 0 3.95-1.13 22.79 22.79 0 0 1 12.038-3.422c4.27 0 8.432 1.183 12.036 3.422a7.5 7.5 0 0 0 7.914-12.743 37.708 37.708 0 0 0-12.45-4.921v-45.584l9.028 12.939a7.49 7.49 0 0 0 6.157 3.209 7.5 7.5 0 0 0 6.143-11.792l-5.053-7.241 20.009 10.516a7.497 7.497 0 0 0 10.503-3.985c7.331-19.375-2.468-41.103-21.844-48.435a37.412 37.412 0 0 0-13.28-2.438c-3.982 0-7.917.657-11.665 1.884v-4.124a7.494 7.494 0 0 0-7.496-7.5zm-27.139 26.207a22.471 22.471 0 0 1 7.974-1.467c4.115 0 8.153 1.152 11.665 3.268v.572l-34.208 17.979c.309-8.822 5.81-17.037 14.569-20.352zm54.276 0c8.761 3.315 14.263 11.529 14.571 20.353L242.5 141.529v-.576c5.833-3.507 13.169-4.244 19.637-1.798z" fill="#196bde" opacity="1" data-original="#000000" class=""></path><path d="M235 25C119.206 25 25 119.206 25 235c0 53.381 20.05 104.258 56.455 143.259 36.223 38.804 85.231 62.303 137.997 66.167a7.502 7.502 0 0 0 1.096-14.96C119.306 422.053 40 336.633 40 235c0-107.523 87.477-195 195-195s195 87.477 195 195c0 46.735-16.79 91.941-47.278 127.29a7.501 7.501 0 0 0 11.359 9.797C426.916 334.016 445 285.331 445 235c0-115.794-94.206-210-210-210z" fill="#196bde" opacity="1" data-original="#000000" class=""></path><path d="M362.29 382.722c-31.898 27.511-70.917 43.675-112.838 46.745a7.501 7.501 0 0 0 1.096 14.96c45.156-3.307 87.185-20.715 121.539-50.345a7.5 7.5 0 0 0-9.797-11.36z" fill="#196bde" opacity="1" data-original="#000000" class=""></path></g></svg>